<?xml version="1.0" encoding="utf-8"?>
<!-- Generator: Adobe Illustrator 22.1.0, SVG Export Plug-In . SVG Version: 6.00 Build 0)  -->
<svg version="1.1" id="レイヤー_1" xmlns="http://www.w3.org/2000/svg" xmlns:xlink="http://www.w3.org/1999/xlink" x="0px"
	 y="0px" viewBox="0 0 157 33" style="enable-background:new 0 0 157 33;" xml:space="preserve">
<style type="text/css">
	.st0{fill:#0074BE;}
</style>
<g>
	<path class="st0" d="M22.5,0h-9.2H8.6v4.8v7.6H6.7V0H1.9v12.4v4.8h4.7h1.9V19v4.8h4.8h12.4V19H13.3v-1.9H21h4.8v-4.8V3.2
		C25.7,1.4,24.3,0,22.5,0 M13.3,4.8H21v7.6h-7.6V4.8z"/>
	<polygon points="3.6,30.6 3.6,31.7 0,31.7 0,26 1.3,26 1.3,30.6 	"/>
	<path d="M5.4,27.1H4.1v-1.2h1.2V27.1z M5.4,31.7H4.1v-4.2h1.2V31.7z"/>
	<path d="M7.6,31.7H6.4v-3.2H5.9v-0.9h0.5c0-0.4,0-0.8,0.2-1.1c0.3-0.4,0.8-0.6,1.3-0.5l0.6,0v0.9l-0.4,0c-0.4,0-0.4,0.3-0.4,0.6
		v0.1h0.8v0.9H7.6V31.7z"/>
	<path d="M9.9,29.8l0,0.2c0,0.5,0.3,0.9,0.8,0.9c0.4,0,0.7-0.3,0.7-0.7l1.1,0.1c0,0.2-0.5,1.5-1.9,1.5c-1.3,0-2.1-0.9-2.1-2.1
		c0-1.2,0.7-2.3,2.1-2.3c0.6,0,1.2,0.3,1.5,0.7c0.4,0.5,0.4,1.1,0.4,1.7H9.9z M11.4,29.1c0-0.5-0.2-0.9-0.7-0.9
		c-0.5,0-0.7,0.4-0.8,0.9H11.4z"/>
	<polygon points="16.9,30.6 16.9,31.7 13.3,31.7 13.3,26 14.6,26 14.6,30.6 	"/>
	<path d="M18.7,27.1h-1.2v-1.2h1.2V27.1z M18.7,31.7h-1.2v-4.2h1.2V31.7z"/>
	<path d="M20.7,27.5v0.7h0c0.2-0.5,0.6-0.8,1.2-0.8c0.4,0,0.8,0.1,1,0.5c0.2,0.3,0.2,0.8,0.2,1.2v2.6H22v-2.3c0-0.4,0.1-1.1-0.6-1.1
		c-0.2,0-0.4,0.1-0.5,0.3c-0.1,0.2-0.1,0.5-0.1,0.7v2.3h-1.2v-4.2H20.7z"/>
	<path d="M25.2,29.8l0,0.2c0,0.5,0.3,0.9,0.8,0.9c0.4,0,0.7-0.3,0.7-0.7l1.1,0.1c0,0.2-0.5,1.5-1.9,1.5c-1.3,0-2.1-0.9-2.1-2.1
		c0-1.2,0.7-2.3,2.1-2.3c0.6,0,1.2,0.3,1.5,0.7c0.4,0.5,0.4,1.1,0.4,1.7H25.2z M26.7,29.1c0-0.5-0.2-0.9-0.7-0.9
		c-0.5,0-0.7,0.4-0.8,0.9H26.7z"/>
	<path d="M46.2,20.7c-0.8-0.9-1.3-1.8-1.7-3.1v3.5H43v-3.5c-0.5,1.3-1.1,2.3-1.9,3.1l-0.9-1.3c1.1-0.9,1.9-1.9,2.5-3.1h-2v-0.5
		L40.1,17c-0.2-0.5-0.5-1.2-0.6-1.7v5.9h-1.4v-5.5c-0.2,0.9-0.6,1.9-1,2.6l-0.7-1.6C37,16,37.5,15,38,13.8h-1.1v-1.4h1.3v-1.8h1.4
		v1.8h1v1.4h-0.9c0.3,0.7,0.7,1.3,1,1.6v-0.4h0.8l-1.1-0.8c0.5-1,0.8-1.9,1.1-3.1l1.2,0.3c-0.1,0.3-0.1,0.6-0.2,0.8H43v-1.7h1.4v1.7
		h1.9v1.4h-1.9v1.4h2.3v1.3h-2c0.6,1.2,1.3,2,2.3,2.9L46.2,20.7z M43,13.7h-0.9c-0.2,0.5-0.3,0.9-0.6,1.4H43V13.7z"/>
	<path d="M48.6,21l-0.3-1.5c0.7,0,1.4-0.1,2.1-0.2v-2.6h-1.8v-1.4h5.1v1.4h-1.9v2.4c1.2-0.2,2.3-0.5,2.3-0.5v1.5
		C54.1,20.1,51.3,20.7,48.6,21 M57,21.1c-0.4,0-0.9-0.4-1.3-1c-1-1.4-1.5-3.5-1.7-6.1h-5.6v-1.4H54c0-0.7-0.1-1.2-0.1-2h1.5
		c0,0.8,0,1.3,0,2H57c-0.2-0.4-0.6-0.8-1-1.2l1.1-0.8c0.9,0.8,1.7,2,1.7,2L58.2,13v1.1h-2.6c0.2,1.9,0.5,3.4,0.9,4.3
		c0.2,0.5,0.4,0.8,0.6,0.8c0.2,0,0.4-0.5,0.7-1.6l1.1,1.4C58.2,20.5,57.6,21.1,57,21.1"/>
	<path d="M69.9,15c-0.7-0.3-1.3-0.6-1.9-0.9v1.1h-5.4v-1.1c-0.6,0.3-1.2,0.6-2,0.9l-0.7-1.6c1.8-0.6,3.3-1.4,4.5-2.7h1.7
		c1.2,1.3,2.7,2.1,4.5,2.7L69.9,15z M69.1,21.2c-0.3-0.4-0.6-0.8-0.9-1.1c-2.5,0.4-4.7,0.6-7.5,0.8l-0.3-1.6c0.5,0,0.9,0,1.3,0
		c0.5-0.5,1.1-1.1,1.5-1.8h-2.9V16h9.9v1.4h-2.3c0.8,0.7,1.6,1.6,2.4,2.7L69.1,21.2z M65.3,12c-0.7,0.7-1.4,1.3-2.2,1.8h4.5
		C66.7,13.3,66,12.7,65.3,12 M65,17.5c-0.4,0.7-0.9,1.3-1.4,1.8c1.2-0.1,2.8-0.2,3.7-0.3c-0.2-0.3-0.5-0.6-0.8-0.9l0.9-0.6H65z"/>
	<path d="M76.3,17.8c-0.5-0.3-1-0.8-1.4-1.3v4.7h-1.4V17c-0.4,0.3-0.8,0.6-1.2,0.8l-0.5-1.4c2.1-1.2,2.9-2.3,3.2-2.8h-2.7v-1.4h1.3
		v-1.6H75v1.6h1.5v1.2c0,0-0.4,0.9-1.3,1.9c0.3,0.3,1.1,0.8,1.7,1L76.3,17.8z M76,21v-1.4h2.5v-4.1h-2V14h2v-3.3H80V14H82v1.4H80
		v4.1h2.3V21H76z"/>
	<path d="M89.5,20.9v-1.5c3.5-0.2,5.6-1.4,6.4-3.7H88v-1.5h9.8v0.2C97.5,18.3,94.9,20.8,89.5,20.9 M88.6,11.4h8.5v1.5h-8.5V11.4z"/>
	<path d="M106.1,14.9v6.3h-1.7v-5.3c-1.5,0.7-3.2,1.1-4.8,1.4v-1.5c4.6-0.9,6.8-2.6,7.8-4.7h1.8C108.6,12.7,107.5,14,106.1,14.9"/>
	<path d="M113.1,20.9v-1.5c3.6-0.7,5.7-3,6-6.5h-7.4v-1.5h9.2v0.2C121,17.5,117.5,20.4,113.1,20.9"/>
	<path d="M124.8,20.9v-1.5c3.5-0.2,5.6-1.4,6.4-3.7h-7.9v-1.5h9.8v0.2C132.8,18.3,130.2,20.8,124.8,20.9 M124,11.4h8.5v1.5H124V11.4
		z"/>
	<path d="M141.4,14.9v6.3h-1.7v-5.3c-1.5,0.7-3.2,1.1-4.8,1.4v-1.5c4.6-0.9,6.8-2.6,7.8-4.7h1.8C143.9,12.7,142.8,14,141.4,14.9"/>
	<path d="M147.3,13v-1.6c1.5,0.1,3.3,0.3,4.9,0.6v1.7C150.6,13.4,148.8,13.1,147.3,13 M147.4,20.8v-1.6c4.1-0.3,6.9-1.5,7.4-6.2h1.7
		C156,18.5,152.7,20.6,147.4,20.8"/>
</g>
</svg>
