<?xml version="1.0" encoding="utf-8"?>
<!-- Generator: Adobe Illustrator 22.1.0, SVG Export Plug-In . SVG Version: 6.00 Build 0)  -->
<svg version="1.1" id="レイヤー_1" xmlns="http://www.w3.org/2000/svg" xmlns:xlink="http://www.w3.org/1999/xlink" x="0px"
	 y="0px" viewBox="0 0 29 33" style="enable-background:new 0 0 29 33;" xml:space="preserve">
<style type="text/css">
	.st0{fill:#0074BE;}
</style>
<g>
	<path class="st0" d="M22.5,0h-9.2H8.6v4.8v7.6H6.7V0H1.9v12.4v4.8h4.7h1.9V19v4.8h4.8h12.4V19H13.3v-1.9H21h4.8v-4.8V3.2
		C25.7,1.4,24.3,0,22.5,0 M13.3,4.8H21v7.6h-7.6V4.8z"/>
	<polygon points="3.6,30.6 3.6,31.7 0,31.7 0,26 1.3,26 1.3,30.6 	"/>
	<path d="M5.4,27.1H4.1v-1.2h1.2V27.1z M5.4,31.7H4.1v-4.2h1.2V31.7z"/>
	<path d="M7.6,31.7H6.4v-3.2H5.9v-0.9h0.5c0-0.4,0-0.8,0.2-1.1c0.3-0.4,0.8-0.6,1.3-0.5l0.6,0v0.9l-0.4,0c-0.4,0-0.4,0.3-0.4,0.6
		v0.1h0.8v0.9H7.6V31.7z"/>
	<path d="M9.9,29.8l0,0.2c0,0.5,0.3,0.9,0.8,0.9c0.4,0,0.7-0.3,0.7-0.7l1.1,0.1c0,0.2-0.5,1.5-1.9,1.5c-1.3,0-2.1-0.9-2.1-2.1
		c0-1.2,0.7-2.3,2.1-2.3c0.6,0,1.2,0.3,1.5,0.7c0.4,0.5,0.4,1.1,0.4,1.7H9.9z M11.4,29.1c0-0.5-0.2-0.9-0.7-0.9
		c-0.5,0-0.7,0.4-0.8,0.9H11.4z"/>
	<polygon points="16.9,30.6 16.9,31.7 13.3,31.7 13.3,26 14.6,26 14.6,30.6 	"/>
	<path d="M18.7,27.1h-1.2v-1.2h1.2V27.1z M18.7,31.7h-1.2v-4.2h1.2V31.7z"/>
	<path d="M20.7,27.5v0.7h0c0.2-0.5,0.6-0.8,1.2-0.8c0.4,0,0.8,0.1,1,0.5c0.2,0.3,0.2,0.8,0.2,1.2v2.6H22v-2.3c0-0.4,0.1-1.1-0.6-1.1
		c-0.2,0-0.4,0.1-0.5,0.3c-0.1,0.2-0.1,0.5-0.1,0.7v2.3h-1.2v-4.2H20.7z"/>
	<path d="M25.2,29.8l0,0.2c0,0.5,0.3,0.9,0.8,0.9c0.4,0,0.7-0.3,0.7-0.7l1.1,0.1c0,0.2-0.5,1.5-1.9,1.5c-1.3,0-2.1-0.9-2.1-2.1
		c0-1.2,0.7-2.3,2.1-2.3c0.6,0,1.2,0.3,1.5,0.7c0.4,0.5,0.4,1.1,0.4,1.7H25.2z M26.7,29.1c0-0.5-0.2-0.9-0.7-0.9
		c-0.5,0-0.7,0.4-0.8,0.9H26.7z"/>
</g>
</svg>
